<svg xmlns="http://www.w3.org/2000/svg" width="144" height="144" viewBox="0 0 144 144"><g fill="none"><path fill="#414952" d="M144 72c0 39.765-32.235 72-72 72S0 111.765 0 72 32.235 0 72 0s72 32.235 72 72z"/><path fill="#333940" d="M144 72c0-.498-.009-.994-.019-1.49L98.784 25.312l-70.032 97.032 16.535 16.534A71.798 71.798 0 0 0 72 144c39.765 0 72-32.235 72-72z"/><path fill="#FFF" d="M46.47 25.31L28.75 43.03v79.31h70.03V25.31z"/><path fill="#E9EDF5" d="M63.73 25.31h35.05v97.03H63.73z"/><path fill="#FE6A16" d="M46.47 43.03V25.31L28.75 43.03z"/><path fill="#09CE67" d="M110.726 97.688l-11.942 8.633-11.943-8.633a24.738 24.738 0 0 1-10.163-18.043L74.199 52.56s18.196-9.528 24.585-9.528c6.388 0 24.584 9.528 24.584 9.528l-2.479 27.086a24.738 24.738 0 0 1-10.163 18.043z"/><path fill="#1AAD5C" d="M98.784 43.031l-.065.001v63.242l.065.047 11.942-8.633a24.738 24.738 0 0 0 10.163-18.043l2.479-27.086s-18.196-9.528-24.584-9.528z"/><path fill="#15E874" d="M108.622 92.853l-9.838 7.113-9.839-7.113a20.374 20.374 0 0 1-8.372-14.863L78.53 55.674s14.99-7.848 20.254-7.848c5.263 0 20.253 7.848 20.253 7.848l-2.042 22.316a20.374 20.374 0 0 1-8.373 14.863z"/><path fill="#09CE67" d="M98.784 47.826h-.065v52.092l.065.048 9.838-7.113a20.374 20.374 0 0 0 8.373-14.863l2.042-22.316s-14.99-7.848-20.253-7.848z"/></g></svg>