<svg xmlns="http://www.w3.org/2000/svg" width="144" height="144" viewBox="0 0 144 144"><g fill="none"><path fill="#EF4C35" d="M78.62 117.63l3.01-8.04-9.25-6.8-9.28 6.83 3.36 8.01z"/><path fill="#DD3E2B" d="M66.46 117.63l.17.42-4.14 25.67h20.13l-4.15-25.7.15-.39z"/><path fill="#D2D2D7" d="M65.07 143.72l4.19-25.98-4.05-9.68-12.99-12.35 2.54 18.53 8.26 29.48z"/><path fill="#E4E4EA" d="M82.12 143.72l8.36-29.82 2.54-18.54-13.52 12.67-3.65 9.73 4.18 25.96z"/><path fill="#F5F5F7" d="M82.317 113.231c2.674 1.968 4.292.216 4.896-.696l8.52-17.512-10.996-7.259-2.596 4.674-9.672 10.04-9.411-9.168-1.824-6.34-12.2 8.052 8.319 17.1c.23.455 1.917 3.476 5.135 1.111l9.895-7.282 9.43 6.94c.15.091.315.2.504.34z"/><path fill="#694B4B" d="M73.786.28h-2.581c-17.629 0-31.97 14.343-31.97 31.971v14.998s7.279-.722 8.174-4.252l-.005-.004c.308-.334.565-.715.746-1.14 4.129-.125 23.415-.275 34.428-13.577 1.315 3.846 5.76 11.126 14.316 13.419.177.464.439.882.76 1.245l-.072.057c.895 3.53 8.174 4.252 8.174 4.252V32.25c0-17.628-14.342-31.97-31.97-31.97zm24.103 40.421l.308-.223h.044l-.502.371.15-.148zm-.156.096l.034-.109.107-.21h.043l-.127.264-.057.055zm-.848.656l-.012-.017.788-.57-.186.18-.576.425-.014-.018zm.65-.186l-.246.511-.005-.001-.034-.016-.017-.01.402-.799.01-.01-.11.325z"/><path fill="#563B3B" d="M44.87 40.505v-8.254c0-17.117 13.522-31.132 30.443-31.932a31.792 31.792 0 0 0-1.527-.04h-2.581c-17.629 0-31.97 14.344-31.97 31.972v14.997s3.217-.32 5.636-1.57v-5.173z"/><path fill="#FBCB99" d="M101.916 42.614a4.026 4.026 0 0 0-5.223 3.843v11.47a4.022 4.022 0 0 0 4.025 4.025c.4 0 .805-.06 1.197-.183a9.986 9.986 0 0 0 2.253-1.03c.425-.261.799-.6 1.1-.997a4.05 4.05 0 0 0 1.174-.912 10.018 10.018 0 0 0 2.522-6.64 9.987 9.987 0 0 0-7.048-9.576z"/><path fill="#EDBA89" d="M46.775 43.213a4.03 4.03 0 0 0-3.583-.6 9.991 9.991 0 0 0-7.05 9.577 9.99 9.99 0 0 0 7.05 9.579 4.026 4.026 0 0 0 5.224-3.842V46.454a4.024 4.024 0 0 0-1.64-3.242z"/><path fill="#FBCB99" d="M83.544 77.922a4.044 4.044 0 0 0-2.956-1.114l-.137.007c-.245.008-.49.04-.73.092a21.706 21.706 0 0 1-4.706.522h-4.921c-1.614 0-3.244-.186-4.846-.553a4.027 4.027 0 0 0-4.925 3.923v11.709l-.002.04a4.031 4.031 0 0 0 1.21 3.106l8.087 7.878a4.025 4.025 0 0 0 2.808 1.14h.065a4.023 4.023 0 0 0 2.835-1.233l8.332-8.649a4.022 4.022 0 0 0 1.127-2.792V80.83a4.027 4.027 0 0 0-1.241-2.908z"/><path fill="#EDBA89" d="M73.242 102.323l-8.088-7.877a4.029 4.029 0 0 1-1.21-3.107l.003-.04V79.592c0-1.03.398-2.01 1.094-2.75a4.022 4.022 0 0 0-3.2.81 4.027 4.027 0 0 0-1.518 3.148v11.709l-.002.04a4.031 4.031 0 0 0 1.21 3.106l8.088 7.878a4.025 4.025 0 0 0 2.808 1.14h.065a4.022 4.022 0 0 0 2.834-1.233l.036-.038a4.007 4.007 0 0 1-2.12-1.078z"/><path fill="#FBCB99" d="M96.086 39.328a14.051 14.051 0 0 1-1.395-.617C87.927 35.555 85.12 31.45 83.99 29a2.753 2.753 0 0 1-.203-.323c-.809-1.486-2.069-.545-2.069-.545l-.005-.003c-6.317 4.845-13.216 7.678-18.952 9.326a59.15 59.15 0 0 1-6.306 1.484c-3.845.706-6.317.798-6.317.798a4.026 4.026 0 0 0-3.737 4.016v16.424c0 13.064 10.63 23.692 23.692 23.692h4.922c13.062 0 23.69-10.628 23.69-23.692V43.1a4.025 4.025 0 0 0-2.62-3.772z"/><path fill="#EDBA89" d="M51.232 60.178V43.754a4.026 4.026 0 0 1 3.736-4.016s2.471-.092 6.317-.798a59.154 59.154 0 0 0 6.307-1.484c5.076-1.46 11.064-3.85 16.754-7.738a13.705 13.705 0 0 1-.357-.717 2.753 2.753 0 0 1-.203-.323c-.808-1.486-2.068-.545-2.068-.545l-.005-.003c-6.317 4.844-13.216 7.678-18.952 9.326a59.15 59.15 0 0 1-6.306 1.484c-3.845.706-6.317.798-6.317.798a4.026 4.026 0 0 0-3.737 4.016v16.424c0 13.064 10.63 23.692 23.692 23.692h4.829c-13.062 0-23.69-10.628-23.69-23.692z"/><path fill="#324A5E" d="M26.43 143.72h39.236l-14.06-50.195-14.5 6.043-.02.007c-5.89 2.067-15.856 9.567-15.856 24.557v14.393c.078 1.553.735 5.195 5.2 5.195zm96.877-5.02v-14.568c0-15.174-10.366-22.693-15.877-24.564l-13.955-5.815-13.997 49.967h38.64c4.306 0 5.07-3.388 5.19-5.02z"/><path fill="#283D4C" d="M51.606 93.525l-14.5 6.043-.02.007c-5.89 2.068-15.856 9.567-15.856 24.557v14.393c.078 1.553.735 5.195 5.2 5.195h.651v-19.588c0-14.99 9.967-22.49 15.856-24.557l.02-.007 9.26-3.86-.61-2.183zm55.361 50.195v-20.012a2.275 2.275 0 1 0-4.55 0v20.012h4.55zm-64.277 0v-20.012a2.275 2.275 0 1 0-4.55 0v20.012h4.55z"/><path fill="#EDBA89" d="M74.863 62.107c.836 0 1.517.68 1.517 1.516 0 .837-.68 1.517-1.517 1.517h-3.876c-.836 0-1.516-.68-1.516-1.517V56.23c0-.836.68-1.517 1.516-1.517.837 0 1.517.68 1.517 1.517v5.877h2.359z"/></g></svg>