<svg xmlns="http://www.w3.org/2000/svg" width="144" height="144" viewBox="0 0 144 144"><g fill="none"><path fill="#ECEDF2" d="M70.93 7.7h64.99v131.1H8.09V7.7h17.6"/><path fill="#C6CAD5" d="M70.93 7.7h64.99v13.48H8.09V7.7h17.6"/><path fill="#525C66" d="M53.509 12.807h88.146A2.344 2.344 0 0 0 144 10.462V4.946a2.344 2.344 0 0 0-2.344-2.345H2.345A2.344 2.344 0 0 0 .001 4.945v5.518a2.344 2.344 0 0 0 2.344 2.344h36.742"/><circle cx="48.31" cy="29.52" r="26.48" fill="#C6CAD5"/><circle cx="48.31" cy="26.58" r="26.48" fill="#FFF"/><path fill="#D81616" d="M63.776 21.383H54.68a1.173 1.173 0 0 1-1.172-1.173v-9.094c0-.647-.525-1.172-1.173-1.172h-8.054c-.647 0-1.172.524-1.172 1.172v9.095c0 .647-.525 1.172-1.173 1.172h-9.094c-.647 0-1.173.525-1.173 1.173v8.054c0 .647.525 1.172 1.173 1.172h9.094c.648 0 1.173.525 1.173 1.173v9.094c0 .648.525 1.173 1.172 1.173h8.054c.648 0 1.173-.525 1.173-1.173v-9.094c0-.648.525-1.173 1.172-1.173h9.095c.647 0 1.172-.524 1.172-1.172v-8.054c0-.648-.525-1.173-1.172-1.173z"/><path fill="#A0D9F2" d="M88.457 61.959h14.32v26.15h-14.32zm-47.239 0h14.32v26.15h-14.32zm70.86 0h14.32v26.15h-14.32zm-47.24 0h14.32v26.15h-14.32zm-47.24 0h14.32v26.15h-14.32zm23.62 35.04h14.32v26.15h-14.32zm23.62 0h14.32v26.15h-14.32zm-47.24 0h14.32v26.15h-14.32zm70.859-70.09h14.32v26.15h-14.32zm23.621 0h14.32v26.15h-14.32z"/><path fill="#FFF" d="M102.781 89.872H88.46c-.974 0-1.763-.79-1.763-1.763V61.955c0-.973.79-1.763 1.763-1.763h14.322c.974 0 1.763.79 1.763 1.763V88.11c0 .974-.79 1.763-1.763 1.763zm-12.56-3.527h10.797V63.72H90.222v22.626zm-34.678 3.527H41.22c-.973 0-1.763-.79-1.763-1.763V61.955c0-.973.79-1.763 1.763-1.763h14.323c.973 0 1.763.79 1.763 1.763V88.11c0 .974-.79 1.763-1.763 1.763zm-12.56-3.527H53.78V63.72H42.983v22.626zm83.417 3.527h-14.322c-.974 0-1.763-.79-1.763-1.763V61.955c0-.973.79-1.763 1.763-1.763H126.4c.974 0 1.763.79 1.763 1.763V88.11c0 .974-.79 1.763-1.763 1.763zm-12.559-3.527h10.796V63.72H113.84v22.626zm-34.679 3.527H64.839c-.973 0-1.763-.79-1.763-1.763V61.955c0-.973.79-1.763 1.763-1.763h14.323c.973 0 1.763.79 1.763 1.763V88.11c0 .974-.79 1.763-1.763 1.763zm-12.56-3.527h10.796V63.72H66.603v22.626zm-34.679 3.527H17.601c-.974 0-1.763-.79-1.763-1.763V61.955c0-.973.79-1.763 1.763-1.763h14.322c.974 0 1.763.79 1.763 1.763V88.11c0 .974-.789 1.763-1.763 1.763zm-12.559-3.527H30.16V63.72H19.364v22.626z"/><path fill="#A0D9F2" d="M126.4 97H88.46v36.7l37.94 2.93z"/><g fill="#FFF"><path d="M128.163 135.165h-3.526V98.761H90.222v36.404h-3.527V96.998c0-.974.79-1.763 1.763-1.763H126.4c.974 0 1.763.79 1.763 1.763v38.167zm-72.62-10.25H41.22c-.973 0-1.763-.79-1.763-1.763V96.998c0-.973.79-1.763 1.763-1.763h14.323c.973 0 1.763.79 1.763 1.763v26.154c0 .973-.79 1.763-1.763 1.763zm-12.56-3.527H53.78V98.761H42.983v22.627zm36.179 3.527H64.839c-.973 0-1.763-.79-1.763-1.763V96.998c0-.973.79-1.763 1.763-1.763h14.323c.973 0 1.763.79 1.763 1.763v26.154c0 .973-.79 1.763-1.763 1.763zm-12.56-3.527h10.796V98.761H66.603v22.627zm-34.679 3.527H17.601c-.974 0-1.763-.79-1.763-1.763V96.998c0-.973.79-1.763 1.763-1.763h14.322c.974 0 1.763.79 1.763 1.763v26.154c0 .973-.789 1.763-1.763 1.763zm-12.559-3.527H30.16V98.761H19.364v22.627zm83.417-66.558H88.46c-.974 0-1.763-.79-1.763-1.764V26.912c0-.973.79-1.763 1.763-1.763h14.322c.974 0 1.763.79 1.763 1.763v26.154c0 .974-.79 1.763-1.763 1.763zm-12.56-3.527h10.797V28.676H90.222v22.627zM126.4 54.83h-14.322c-.974 0-1.763-.79-1.763-1.764V26.912c0-.973.79-1.763 1.763-1.763H126.4c.974 0 1.763.79 1.763 1.763v26.154c0 .974-.79 1.763-1.763 1.763zm-12.559-3.527h10.796V28.676H113.84v22.627z"/><path d="M88.46 104.201h37.94v3.53H88.46z"/><path d="M105.67 105.961h3.53v30.67h-3.53zm-64.45-2.35h14.32v3.53H41.22zm37.942 3.524H64.84v-3.526H77.4v-6.61h3.527v8.373c0 .974-.79 1.763-1.764 1.763zM17.6 103.611h14.32v3.53H17.6zm108.8-31.517h-14.321v-3.527h12.557v-6.612h3.527v8.375c0 .974-.79 1.764-1.763 1.764zm-61.56-3.523h14.32v3.53H64.84zm-47.24 0h14.32v3.53H17.6zm23.62 0h14.32v3.53H41.22zm47.24 0h14.32v3.53H88.46zm37.94-31.519h-14.321v-3.527h12.557v-6.612h3.527v8.375c0 .974-.79 1.764-1.763 1.764zm-37.94-3.531h14.32v3.53H88.46z"/></g><path fill="#423E3E" d="M139.688 133.696H4.311A4.311 4.311 0 0 0 0 138.006v5.896h144v-5.895a4.312 4.312 0 0 0-4.312-4.311z"/></g></svg>